C:\Users\r0593348\3dpredictsim\Results\Batchsim_tmt_linear\Pog_s1_tmt_aCst_d05_k500_ig24_act_GRF.mot
nRows=22
nColumns=19

name C:\Users\r0593348\3dpredictsim\Results\Batchsim_tmt_linear\Pog_s1_tmt_aCst_d05_k500_ig24_act_GRF.mot
datacolumns 19
datarows 22
range 0.6104709803 0.8668687920
endheader
time 	ground_force_vx	ground_force_vy	ground_force_vz	ground_force_px	ground_force_py	ground_force_pz	1_ground_force_vx	1_ground_force_vy	1_ground_force_vz	1_ground_force_px	1_ground_force_py	1_ground_force_pz	ground_torque_x	ground_torque_y	ground_torque_z	1_ground_torque_x	1_ground_torque_y	1_ground_torque_z
        0.6104709803	      107.4878945065	      443.6949826819	        1.7439734753	        0.4081362418	        0.0000000000	        0.0307987071	      -30.4605125835	       22.1501638577	       -7.4562387319	        0.9455767270	        0.0000000000	       -0.0543296729	        0.0000000000	        0.0000000000	        0.0000000000	        0.0000000000	        0.0000000000	        0.0000000000	
        0.6226803999	       81.2262746313	      349.0210255785	        6.2911515589	        0.4151790933	        0.0000000000	        0.0279827421	      -84.2303354095	       75.3901005517	      -28.1829784977	        0.9560306634	        0.0000000000	       -0.0516672241	        0.0000000000	        0.0000000000	        0.0000000000	        0.0000000000	        0.0000000000	        0.0000000000	
        0.6348898195	       49.2350037154	      246.3311386874	       15.8920055580	        0.4266831302	        0.0000000000	        0.0229793109	     -100.4137097145	      204.7108676026	      -55.8135796637	        0.9624823062	        0.0000000000	       -0.0500221738	        0.0000000000	        0.0000000000	        0.0000000000	        0.0000000000	        0.0000000000	        0.0000000000	
        0.6470992391	       29.9736886365	      189.0106356849	       18.5419809612	        0.4355174897	        0.0000000000	        0.0184103648	      -61.5276863557	      426.7401044737	       -7.2608265402	        0.9670927868	        0.0000000000	       -0.0487992249	        0.0000000000	        0.0000000000	        0.0000000000	        0.0000000000	        0.0000000000	        0.0000000000	
        0.6593086587	       28.4499022386	      151.9276095693	       13.8460035488	        0.4357453857	        0.0000000000	        0.0182614912	      -84.0547675114	      676.2774017804	       15.1572032596	        0.9763651827	        0.0000000000	       -0.0503606668	        0.0000000000	        0.0000000000	        0.0000000000	        0.0000000000	        0.0000000000	        0.0000000000	
        0.6715180783	       17.1744553533	      102.2140861211	       13.3968017733	        0.4357780023	        0.0000000000	        0.0184307297	     -126.7587469318	      861.6804995931	       22.2357313688	        0.9852904630	        0.0000000000	       -0.0522611340	        0.0000000000	        0.0000000000	        0.0000000000	        0.0000000000	        0.0000000000	        0.0000000000	
        0.6837274979	        2.9103432655	       40.0045805960	        8.7619604859	        0.4354644440	        0.0000000000	        0.0187840530	     -142.6763156401	      913.9121874633	       22.1683157183	        0.9908436183	        0.0000000000	       -0.0533140646	        0.0000000000	        0.0000000000	        0.0000000000	        0.0000000000	        0.0000000000	        0.0000000000	
        0.6959369175	        0.2752022740	       -0.2795705835	       -0.0171126745	        0.0000000000	        0.0000000000	        0.0000000000	     -134.7638778690	      897.7126163334	       21.4285449648	        0.9948953751	        0.0000000000	       -0.0538349430	        0.0000000000	        0.0000000000	        0.0000000000	        0.0000000000	        0.0000000000	        0.0000000000	
        0.7081463371	        0.0061130500	       -0.0048348477	        0.0003099277	        0.0000000000	        0.0000000000	        0.0000000000	     -118.7927011175	      851.2588357245	       21.1061548972	        0.9990998744	        0.0000000000	       -0.0539592670	        0.0000000000	        0.0000000000	        0.0000000000	        0.0000000000	        0.0000000000	        0.0000000000	
        0.7203557567	        0.0886002377	       -0.0599321779	        0.0061940707	        0.0000000000	        0.0000000000	        0.0000000000	     -103.7949885909	      799.0742911763	       20.1722578507	        1.0038307505	        0.0000000000	       -0.0537965898	        0.0000000000	        0.0000000000	        0.0000000000	        0.0000000000	        0.0000000000	        0.0000000000	
        0.7325651763	       -0.8066138055	        0.4851261704	       -0.0627411760	        0.0000000000	        0.0000000000	        0.0000000000	      -93.3976624786	      757.9465078481	       19.3076896495	        1.0095776524	        0.0000000000	       -0.0533685535	        0.0000000000	        0.0000000000	        0.0000000000	        0.0000000000	        0.0000000000	        0.0000000000	
        0.7447745959	       -1.1225461917	        0.6220410622	       -0.0923364292	        0.0000000000	        0.0000000000	        0.0000000000	      -83.9095332866	      724.6185878949	       19.6298708562	        1.0154005187	        0.0000000000	       -0.0527854340	        0.0000000000	        0.0000000000	        0.0000000000	        0.0000000000	        0.0000000000	        0.0000000000	
        0.7569840155	       -0.7896545416	        0.4133080192	       -0.0634091743	        0.0000000000	        0.0000000000	        0.0000000000	      -73.4969238974	      693.9620638615	       19.6374612572	        1.0207402532	        0.0000000000	       -0.0523011506	        0.0000000000	        0.0000000000	        0.0000000000	        0.0000000000	        0.0000000000	        0.0000000000	
        0.7691934351	       -0.5235156617	        0.2617843172	       -0.0420785065	        0.0000000000	        0.0000000000	        0.0000000000	      -63.9420682470	      667.0706055642	       20.3095566469	        1.0258529833	        0.0000000000	       -0.0518972996	        0.0000000000	        0.0000000000	        0.0000000000	        0.0000000000	        0.0000000000	        0.0000000000	
        0.7814028547	       -0.3840828153	        0.1850263234	       -0.0309245914	        0.0000000000	        0.0000000000	        0.0000000000	      -55.3448636441	      644.8039512404	       20.7400199698	        1.0308631104	        0.0000000000	       -0.0515589788	        0.0000000000	        0.0000000000	        0.0000000000	        0.0000000000	        0.0000000000	        0.0000000000	
        0.7936122743	       -0.3234138119	        0.1511589214	       -0.0261513314	        0.0000000000	        0.0000000000	        0.0000000000	      -47.2847917727	      627.4197001402	       21.3366518752	        1.0363341786	        0.0000000000	       -0.0511933151	        0.0000000000	        0.0000000000	        0.0000000000	        0.0000000000	        0.0000000000	        0.0000000000	
        0.8058216939	       -0.3088736369	        0.1407338609	       -0.0250617963	        0.0000000000	        0.0000000000	        0.0000000000	      -41.0301251856	      614.7227005332	       21.7473054629	        1.0426154889	        0.0000000000	       -0.0507145700	        0.0000000000	        0.0000000000	        0.0000000000	        0.0000000000	        0.0000000000	        0.0000000000	
        0.8180311135	       -0.3258148921	        0.1452230413	       -0.0264676443	        0.0000000000	        0.0000000000	        0.0000000000	      -36.4806163719	      606.0841378088	       21.8157446010	        1.0494718215	        0.0000000000	       -0.0501098624	        0.0000000000	        0.0000000000	        0.0000000000	        0.0000000000	        0.0000000000	        0.0000000000	
        0.8302405331	       -0.3718054966	        0.1624342815	       -0.0301128183	        0.0000000000	        0.0000000000	        0.0000000000	      -32.8203878538	      600.8342115738	       21.2965788273	        1.0566377155	        0.0000000000	       -0.0494023163	        0.0000000000	        0.0000000000	        0.0000000000	        0.0000000000	        0.0000000000	        0.0000000000	
        0.8424499528	       -0.4537607643	        0.1944609199	       -0.0361886466	        0.0000000000	        0.0000000000	        0.0000000000	      -29.7606923208	      597.7456706394	       19.9218326454	        1.0638562749	        0.0000000000	       -0.0486340746	        0.0000000000	        0.0000000000	        0.0000000000	        0.0000000000	        0.0000000000	        0.0000000000	
        0.8546593724	       -0.5772742255	        0.2429856024	       -0.0445693640	        0.0000000000	        0.0000000000	        0.0000000000	      -26.9877160217	      595.2137823113	       18.6775375552	        1.0709310439	        0.0000000000	       -0.0478339926	        0.0000000000	        0.0000000000	        0.0000000000	        0.0000000000	        0.0000000000	        0.0000000000	
        0.8668687920	       -0.7434053360	        0.3078509832	       -0.0548257983	        0.0000000000	        0.0000000000	        0.0000000000	      -24.1471511594	      592.2228916286	       17.7327240741	        1.0777510728	        0.0000000000	       -0.0470283168	        0.0000000000	        0.0000000000	        0.0000000000	        0.0000000000	        0.0000000000	        0.0000000000	
